<?xml version="1.0" encoding="UTF-8" standalone="no"?>
<svg
   xmlns:dc="http://purl.org/dc/elements/1.1/"
   xmlns:cc="http://creativecommons.org/ns#"
   xmlns:rdf="http://www.w3.org/1999/02/22-rdf-syntax-ns#"
   xmlns:svg="http://www.w3.org/2000/svg"
   xmlns="http://www.w3.org/2000/svg"
   xml:space="preserve"
   style="enable-background:new 0 0 1024 1024;"
   viewBox="0 0 1024 1024"
   y="0px"
   x="0px"
   id="圖層_1"
   version="1.1"><metadata
     id="metadata27"><rdf:RDF><cc:Work
         rdf:about=""><dc:format>image/svg+xml</dc:format><dc:type
           rdf:resource="http://purl.org/dc/dcmitype/StillImage" /><dc:title></dc:title></cc:Work></rdf:RDF></metadata><defs
     id="defs25" /><style
     id="style2"
     type="text/css">
	.st0{opacity:0.5;fill:#79BDD3;}
	.st1{fill:#313232;}
	.st2{fill:#393B3C;}
	.st3{fill:#F6F8F9;}
	.st4{fill:#E47576;}
	.st5{font-family:'Arial-BoldMT';}
	.st6{font-size:114.5418px;}
</style><rect
     y="0"
     x="0"
     height="1024"
     width="1024"
     id="rect4534"
     style="opacity:1;fill:#5bb1d4;fill-opacity:0.39215686" /><g
     transform="matrix(1.2161764,0,0,1.2161764,-60.380465,44.432006)"
     id="g18"><path
       style="fill:#313232"
       id="path6"
       d="m 821.18,327.45 c -1.02,23.51 -4.14,39.74 -10.93,54.59 -13.15,28.77 -35.82,46.8 -67.78,48.63 -21.42,1.23 -41.2,-6.07 -55.87,-23.44 -6.65,-7.87 -11.71,-16.68 -16.39,-25.75 -5.55,-10.73 -5.98,-22.37 -5.28,-34.06 0.29,-4.85 0.81,-9.63 -0.11,-14.45 -0.76,-4 0.76,-7.75 1.21,-11.62 2.09,-17.89 11.1,-31.81 24.43,-43.35 2.2,-1.9 4.54,-3.59 7.29,-4.52 16.89,-5.72 33.89,-10.7 52.1,-9.46 13.47,0.92 25.51,5.19 35.95,13.82 4.24,3.5 9.31,5.74 13.55,9.31 11.43,9.62 22.83,27.64 21.83,40.3 z"
       class="st1" /><path
       style="fill:#313232"
       id="path8"
       d="m 286.74,346.91 c -1.66,14.63 -5.48,29.6 -14.6,42.76 -12.09,17.45 -27.99,30.38 -47.64,38.29 -15.85,6.38 -31.86,6.73 -47.42,-1.51 -5.3,-2.81 -9.81,-6.72 -13.36,-11.39 -13.23,-17.36 -21.97,-36.79 -24.51,-58.57 -1.08,-9.24 0.08,-18.47 2.88,-27.52 4.98,-16.14 11.4,-31.29 23.08,-44.04 12.79,-13.96 27.87,-21.55 46.95,-19.32 14.4,1.68 28.51,5.06 40.57,13.52 18.03,12.64 28.28,30.43 32.33,51.92 0.92,4.9 1.47,9.83 1.72,15.86 z"
       class="st1" /><path
       style="fill:#393b3c"
       id="path10"
       d="m 555.83,466.29 c -3.47,2.27 -5.38,5.98 -7.95,9.02 -10.76,12.74 -23.52,22.21 -39.59,27.46 -11.88,3.88 -23.89,6.32 -36.32,6.54 -7.5,0.14 -14.65,-1.7 -21.76,-4.29 -6.51,-2.37 -12.62,-5.34 -18.73,-8.52 -7.92,-4.12 -14.18,-10.13 -19.87,-16.73 -9.27,-10.75 -16.93,-22.55 -21.73,-36.05 -3.67,-10.32 -5.03,-21.05 -5.9,-31.87 -0.66,-8.19 -0.97,-16.4 -1.45,-24.6 -0.15,-2.58 -0.98,-4.51 -3.32,-6.2 -4.4,-3.17 -7.61,-7.48 -9.54,-12.65 -2.02,-5.4 -3.4,-10.98 -4.51,-16.62 -0.9,-4.6 0.86,-7.69 4.82,-9.06 3,-1.03 6.34,0.88 8.24,4.9 2.12,4.49 4.05,9.07 6.15,13.56 2.4,5.12 6.13,8.13 12.11,8.48 15.14,0.9 29.27,-2.01 42.1,-10.34 3.76,-2.44 6.05,-6.41 9.67,-9.11 5.68,-4.24 11.72,-4.89 17.5,-0.81 12.58,8.89 26.39,15.21 41.31,18.68 15.86,3.69 31.58,2.99 46.83,-3.66 6.63,-2.89 10.96,-7.27 12.57,-14.31 0.67,-2.94 2.31,-5.2 4.82,-6.87 2.51,-1.67 5.32,-2.1 7.8,-0.58 2.67,1.63 5.18,3.98 4.9,7.49 -0.74,9.17 -4.4,17.05 -11.28,23.29 -1.35,1.22 -2.75,2.46 -4.33,3.32 -2.01,1.11 -2.11,2.52 -1.82,4.57 2.59,18.28 4.14,36.57 1.03,54.97 -0.91,5.4 -2.92,10.47 -4.06,15.78 -2.57,4.77 -5.13,9.49 -7.69,14.21 z m -4.42,-54.38 c -0.64,-7.69 -1.31,-15.37 -1.92,-23.06 -0.22,-2.74 -1.41,-3.62 -4.14,-2.79 -3.88,1.18 -7.91,1.76 -11.95,2.03 -27.09,1.79 -51.19,-6.78 -73.48,-21.43 -1.8,-1.18 -2.62,-0.92 -3.85,0.49 -2.15,2.46 -4.47,4.77 -7.21,6.61 -14.24,9.59 -30.15,13.41 -47.1,13.65 -4.86,0.07 -4.87,-0.01 -4.13,4.83 1.63,10.73 3.59,21.4 5.57,32.07 2.34,12.61 7.55,23.78 14.83,34.22 14.79,21.2 34.21,33.53 60.8,31.87 24.88,-1.56 45.01,-12.05 59.87,-32.45 10.1,-13.84 12.8,-29.48 12.71,-46.04 z"
       class="st2" /><path
       style="fill:#f6f8f9"
       id="path12"
       d="m 555.83,466.29 c 2.56,-4.72 5.12,-9.44 7.68,-14.16 8.25,8.09 19.12,9.36 29.68,11.49 9.89,1.99 14.17,12.65 8.83,21.31 -5.46,8.87 -16.21,9.61 -24.92,5.85 -8.38,-3.61 -13.3,-10.5 -17.49,-18.13 -1.18,-2.16 -1.98,-4.56 -3.78,-6.36 z"
       class="st3" /><path
       style="fill:#f6f8f9"
       id="path14"
       d="m 651.35,484.36 c 0.01,1.82 -0.19,4.63 -1.88,6.92 -2.23,3.02 -4.8,5.45 -9.16,4.81 -4.78,-0.71 -7.35,-3.86 -8.94,-7.85 -2.29,-5.76 4.74,-15.75 10.95,-15.91 6.05,-0.18 9.1,3.55 9.03,12.03 z"
       class="st3" /><path
       style="fill:#e47576"
       id="path16"
       d="m 551.41,411.91 c 0.09,16.56 -2.62,32.2 -12.7,46.04 -14.86,20.4 -35,30.89 -59.87,32.45 -26.59,1.66 -46.01,-10.67 -60.8,-31.87 -7.28,-10.44 -12.5,-21.61 -14.83,-34.22 -1.98,-10.67 -3.94,-21.34 -5.57,-32.07 -0.74,-4.84 -0.72,-4.76 4.13,-4.83 16.94,-0.24 32.86,-4.06 47.1,-13.65 2.73,-1.84 5.06,-4.15 7.21,-6.61 1.23,-1.41 2.05,-1.67 3.85,-0.49 22.28,14.65 46.39,23.22 73.48,21.43 4.04,-0.27 8.07,-0.85 11.95,-2.03 2.73,-0.83 3.92,0.05 4.14,2.79 0.61,7.69 1.27,15.37 1.91,23.06 z"
       class="st4" /></g></svg>