<?xml version="1.0" encoding="utf-8"?>
<!-- Generator: Adobe Illustrator 23.0.4, SVG Export Plug-In . SVG Version: 6.00 Build 0)  -->
<svg version="1.1" id="圖層_1" xmlns="http://www.w3.org/2000/svg" xmlns:xlink="http://www.w3.org/1999/xlink" x="0px" y="0px"
	 viewBox="0 0 1024 1024" style="enable-background:new 0 0 1024 1024;" xml:space="preserve">
<style type="text/css">
	.st0{opacity:0.5;fill:#79BDD3;}
	.st1{fill:#313232;}
	.st2{fill:#393B3C;}
	.st3{fill:#F6F8F9;}
	.st4{fill:#E47576;}
	.st5{font-family:'Arial-BoldMT';}
	.st6{font-size:114.5418px;}
</style>
<path class="st0" d="M839.23,658.96c-2.15,0.38-4.3,0.77-6.44,1.15c-1.63-9.12-4.07-18.19-4.71-27.39
	c-1.01-14.66-7.5-17.56-21.5-14.91c-63.76,12.07-127.7,23.12-191.58,34.54c-138.5,24.75-276.99,49.52-415.49,74.25
	c-22.04,3.94-22.06,3.88-26.13-18.67c-2.9-16.1-5.83-32.2-8.62-48.31c-3.71-21.4-2.8-22.67,19.08-26.58
	c101.45-18.15,202.89-36.39,304.39-54.29c14.63-2.58,28.5-7.23,42.12-12.65c73.51-29.24,115.48-122.59,87.3-203.37
	c-27.14-77.79-112.51-136.16-203.42-103.61c-63.34,22.67-111.91,98.81-102.01,165.74c3.2,21.65,3.19,21.6,24.65,15.28
	c4.1-1.21,8.91-3.63,12.51-0.49c3.9,3.4,1.15,8.3-0.06,12.3c-11.51,38.08-23.43,76.05-34.64,114.22
	c-2.71,9.22-5.84,10.08-13.09,4.38c-19.26-15.15-38.79-29.95-58.26-44.83c-14.39-10.98-28.85-21.86-44.32-33.57
	c4.86-2.8,7.49-4.96,10.51-5.94c13.69-4.45,15.56-13.19,13.03-26.59c-2.9-15.37-3.25-31.35-3.36-47.08
	c-0.07-10.09-2.96-15.28-13.59-15.73c-34.31-1.45-62.59-16.93-87.8-38.94c-57.36-50.09-62.91-144.15-13.22-202.33
	c17.96-21.03,40.98-33.27,64.8-45.09c10.74-1.92,21.48-3.84,32.22-5.76c18.1,3.05,36.97,2.37,54.1,10.06
	c11.07,4.97,20.57,7.78,23.21-11.31c10.24,21.7,18.88,40.45,27.93,59.01c5.28,10.82,2.19,16.9-9.55,18.05
	c-17.32,1.69-34.75,2.26-51.87,5.92c-8.96,1.92-11.66-2.88-7.29-10.02c6.94-11.34,0.57-14.45-8.74-16.24
	c-29.26-5.64-56.8-2.19-79.64,18.46c-31.96,28.88-38.44,65.49-25.33,104.63c11.66,34.84,38.68,54.01,74.54,61.24
	c15.52,3.13,24.25-1.35,28.98-17.47c10.74-36.58,29.19-69.47,55.69-96.85c94.2-97.33,244.02-102.34,343.19-10.71
	c51.96,48.01,81.16,108.09,86.73,179.33c3.53,45.09-5.14,87.78-22.18,129.14c-3.58,8.69-5.4,15.33,8.14,12.88
	c31.12-5.62,62.26-11.18,93.39-16.74c10.67-1.91,14.63-7.8,12.4-18.66c-1.54-7.54-4.25-15.26-2.49-24.26
	c39.53,20.8,77.38,41.15,115.69,60.62c10.59,5.38,10.6,9.51,3.07,17.67c-23.62,25.62-46.79,51.66-69.89,77.75
	C846.11,643.51,838.08,648.7,839.23,658.96z"/>
<g>
	<path class="st1" d="M821.18,327.45c-1.02,23.51-4.14,39.74-10.93,54.59c-13.15,28.77-35.82,46.8-67.78,48.63
		c-21.42,1.23-41.2-6.07-55.87-23.44c-6.65-7.87-11.71-16.68-16.39-25.75c-5.55-10.73-5.98-22.37-5.28-34.06
		c0.29-4.85,0.81-9.63-0.11-14.45c-0.76-4,0.76-7.75,1.21-11.62c2.09-17.89,11.1-31.81,24.43-43.35c2.2-1.9,4.54-3.59,7.29-4.52
		c16.89-5.72,33.89-10.7,52.1-9.46c13.47,0.92,25.51,5.19,35.95,13.82c4.24,3.5,9.31,5.74,13.55,9.31
		C810.78,296.77,822.18,314.79,821.18,327.45z"/>
	<path class="st1" d="M286.74,346.91c-1.66,14.63-5.48,29.6-14.6,42.76c-12.09,17.45-27.99,30.38-47.64,38.29
		c-15.85,6.38-31.86,6.73-47.42-1.51c-5.3-2.81-9.81-6.72-13.36-11.39c-13.23-17.36-21.97-36.79-24.51-58.57
		c-1.08-9.24,0.08-18.47,2.88-27.52c4.98-16.14,11.4-31.29,23.08-44.04c12.79-13.96,27.87-21.55,46.95-19.32
		c14.4,1.68,28.51,5.06,40.57,13.52c18.03,12.64,28.28,30.43,32.33,51.92C285.94,335.95,286.49,340.88,286.74,346.91z"/>
	<path class="st2" d="M555.83,466.29c-3.47,2.27-5.38,5.98-7.95,9.02c-10.76,12.74-23.52,22.21-39.59,27.46
		c-11.88,3.88-23.89,6.32-36.32,6.54c-7.5,0.14-14.65-1.7-21.76-4.29c-6.51-2.37-12.62-5.34-18.73-8.52
		c-7.92-4.12-14.18-10.13-19.87-16.73c-9.27-10.75-16.93-22.55-21.73-36.05c-3.67-10.32-5.03-21.05-5.9-31.87
		c-0.66-8.19-0.97-16.4-1.45-24.6c-0.15-2.58-0.98-4.51-3.32-6.2c-4.4-3.17-7.61-7.48-9.54-12.65c-2.02-5.4-3.4-10.98-4.51-16.62
		c-0.9-4.6,0.86-7.69,4.82-9.06c3-1.03,6.34,0.88,8.24,4.9c2.12,4.49,4.05,9.07,6.15,13.56c2.4,5.12,6.13,8.13,12.11,8.48
		c15.14,0.9,29.27-2.01,42.1-10.34c3.76-2.44,6.05-6.41,9.67-9.11c5.68-4.24,11.72-4.89,17.5-0.81
		c12.58,8.89,26.39,15.21,41.31,18.68c15.86,3.69,31.58,2.99,46.83-3.66c6.63-2.89,10.96-7.27,12.57-14.31
		c0.67-2.94,2.31-5.2,4.82-6.87c2.51-1.67,5.32-2.1,7.8-0.58c2.67,1.63,5.18,3.98,4.9,7.49c-0.74,9.17-4.4,17.05-11.28,23.29
		c-1.35,1.22-2.75,2.46-4.33,3.32c-2.01,1.11-2.11,2.52-1.82,4.57c2.59,18.28,4.14,36.57,1.03,54.97
		c-0.91,5.4-2.92,10.47-4.06,15.78C560.95,456.85,558.39,461.57,555.83,466.29z M551.41,411.91c-0.64-7.69-1.31-15.37-1.92-23.06
		c-0.22-2.74-1.41-3.62-4.14-2.79c-3.88,1.18-7.91,1.76-11.95,2.03c-27.09,1.79-51.19-6.78-73.48-21.43
		c-1.8-1.18-2.62-0.92-3.85,0.49c-2.15,2.46-4.47,4.77-7.21,6.61c-14.24,9.59-30.15,13.41-47.1,13.65
		c-4.86,0.07-4.87-0.01-4.13,4.83c1.63,10.73,3.59,21.4,5.57,32.07c2.34,12.61,7.55,23.78,14.83,34.22
		c14.79,21.2,34.21,33.53,60.8,31.87c24.88-1.56,45.01-12.05,59.87-32.45C548.8,444.11,551.5,428.47,551.41,411.91z"/>
	<path class="st3" d="M555.83,466.29c2.56-4.72,5.12-9.44,7.68-14.16c8.25,8.09,19.12,9.36,29.68,11.49
		c9.89,1.99,14.17,12.65,8.83,21.31c-5.46,8.87-16.21,9.61-24.92,5.85c-8.38-3.61-13.3-10.5-17.49-18.13
		C558.43,470.49,557.63,468.09,555.83,466.29z"/>
	<path class="st3" d="M651.35,484.36c0.01,1.82-0.19,4.63-1.88,6.92c-2.23,3.02-4.8,5.45-9.16,4.81c-4.78-0.71-7.35-3.86-8.94-7.85
		c-2.29-5.76,4.74-15.75,10.95-15.91C648.37,472.15,651.42,475.88,651.35,484.36z"/>
	<path class="st4" d="M551.41,411.91c0.09,16.56-2.62,32.2-12.7,46.04c-14.86,20.4-35,30.89-59.87,32.45
		c-26.59,1.66-46.01-10.67-60.8-31.87c-7.28-10.44-12.5-21.61-14.83-34.22c-1.98-10.67-3.94-21.34-5.57-32.07
		c-0.74-4.84-0.72-4.76,4.13-4.83c16.94-0.24,32.86-4.06,47.1-13.65c2.73-1.84,5.06-4.15,7.21-6.61c1.23-1.41,2.05-1.67,3.85-0.49
		c22.28,14.65,46.39,23.22,73.48,21.43c4.04-0.27,8.07-0.85,11.95-2.03c2.73-0.83,3.92,0.05,4.14,2.79
		C550.11,396.54,550.77,404.22,551.41,411.91z"/>
</g>
<text transform="matrix(1 0 0 1 144.7383 871.1875)" class="st3 st5 st6">Scrum Poker</text>
</svg>
